<?xml version='1.0' encoding='UTF-8' standalone='no'?>
<svg xmlns:xlink="http://www.w3.org/1999/xlink" xmlns="http://www.w3.org/2000/svg" width="720pt" height="160pt" viewBox="0 0 720 160">
 <title>gl2ps_renderer figure</title>
 <desc>
Creator: GL2PS 1.4.0, (C) 1999-2017 C. Geuzaine
For: Octave
CreationDate: Mon Jul  5 21:37:46 2021
</desc>
 <defs/>
 <polygon fill="#ffffff" points="0,0 720,0 720,160 0,160"/>
 <g>
  <polygon fill="#ffffff" shape-rendering="crispEdges" points="0,160 720,160 720,0 0,0"/>
  <clipPath id="cp00720160">
   <polygon points="0,160 720,160 720,0 0,0"/>
  </clipPath>
  <g clip-path="url(#cp00720160)">
   <polyline stroke-linecap="butt" fill="none" stroke-width="0.5" stroke-linejoin="round" points="93.6007,114.784 94.2982,115.465 94.9957,116.138 95.6932,116.801 96.3907,117.448 97.0882,118.077 97.7857,118.683 98.4832,119.263 99.1807,119.813 99.8782,120.33 100.576,120.811 101.273,121.253 101.971,121.653 102.668,122.008 103.366,122.316 104.063,122.576 104.761,122.784 105.458,122.941 106.156,123.045 106.853,123.094 107.551,123.088 108.248,123.028 108.946,122.912 109.643,122.741 110.341,122.515 111.038,122.236 111.736,121.905 112.433,121.523 113.131,121.091 113.828,120.612 114.526,120.089 115.223,119.522 115.921,118.916 116.618,118.274 117.316,117.597 118.013,116.891 118.711,116.158 119.408,115.402 120.106,114.627 120.803,113.837 121.501,113.035 122.198,112.227 122.896,111.416 123.593,110.607 124.291,109.803 124.988,109.01 125.686,108.231 126.383,107.47 127.081,106.732 127.778,106.02 128.476,105.339 129.173,104.692 129.871,104.083 130.568,103.515 131.266,102.991 131.963,102.514 132.661,102.087 133.358,101.713 134.056,101.394 134.753,101.131 135.451,100.927 136.148,100.782 136.846,100.698 137.543,100.675 138.241,100.714 138.938,100.815 139.636,100.978 140.333,101.201 141.031,101.485 141.728,101.827 142.426,102.226 143.123,102.68 143.821,103.187 144.518,103.744 145.216,104.348 145.913,104.996 146.611,105.684 147.308,106.409 148.006,107.166 148.703,107.952 149.401,108.761 150.098,109.59 150.796,110.432 151.493,111.283 152.191,112.138 152.888,112.992 153.586,113.838 154.283,114.673 154.981,115.489 155.678,116.281 156.376,117.044 157.073,117.773 157.771,118.461 158.468,119.104 159.166,119.696 159.863,120.231 160.561,120.706 161.258,121.115 161.956,121.454 162.653,121.717 163.351,121.902 164.048,122.004 164.746,122.02 165.443,121.946 166.141,121.779 166.838,121.518 167.536,121.159 168.233,120.701 168.931,120.143 169.628,119.483 170.326,118.721 171.023,117.857 171.721,116.891 172.418,115.824 173.116,114.656 173.813,113.389 174.511,112.026 175.208,110.568 175.906,109.018 176.603,107.38 177.301,105.658 177.998,103.854 178.696,101.974 179.393,100.022 180.091,98.0035 180.788,95.9239 181.486,93.7888 182.183,91.6043 182.881,89.3767 183.578,87.1126 184.276,84.8186 184.973,82.5018 185.671,80.1693 186.368,77.8283 187.066,75.4864 187.763,73.1508 188.461,70.8292 189.158,68.5291 189.856,66.2581 190.553,64.0236 191.251,61.8331 191.948,59.6939 192.646,57.6133 193.343,55.5984 194.041,53.6558 194.738,51.7925 195.436,50.0146 196.133,48.3285 196.831,46.7398 197.528,45.2542 198.226,43.8768 198.923,42.6124 199.621,41.4654 200.318,40.4398 201.016,39.5392 201.713,38.7666 202.411,38.1247 203.108,37.6158 203.806,37.2414 204.503,37.0028 205.201,36.9007 205.898,36.9353 206.596,37.1062 207.293,37.4126 207.991,37.8531 208.688,38.4259 209.386,39.1287 210.083,39.9584 210.781,40.9118 211.478,41.9851 212.176,43.1739 212.873,44.4735 213.571,45.8788 214.268,47.384 214.966,48.9833 215.663,50.6703 216.361,52.4383 217.058,54.2802 217.756,56.1887 218.453,58.1562 219.151,60.1749 219.848,62.2368 220.546,64.3336 221.243,66.4569 221.941,68.5984 222.638,70.7493 223.336,72.9012 224.033,75.0453 224.731,77.1731 225.428,79.276 226.126,81.3456 226.823,83.3736 227.521,85.3517 228.218,87.2719 228.916,89.1265 229.613,90.908 230.311,92.609 231.008,94.2227 231.706,95.7425 232.403,97.162 233.101,98.4756 233.798,99.6777 234.496,100.763 235.193,101.728 235.891,102.567 236.588,103.278 237.286,103.857 237.983,104.302 238.681,104.611 239.378,104.782 240.076,104.814 240.773,104.707 241.471,104.461 242.168,104.076 242.866,103.555 243.563,102.899 244.261,102.109 244.958,101.19 245.656,100.144 246.353,98.9754 247.051,97.6886 247.748,96.2883 248.446,94.7798 249.143,93.169 249.841,91.462 250.538,89.6654 251.236,87.7861 251.933,85.8312 252.631,83.8085 253.328,81.7257 254.026,79.5909 254.723,77.4125 255.421,75.1989 256.118,72.9587 256.816,70.7007 257.513,68.4338 258.211,66.1669 258.908,63.9088 259.606,61.6684 260.303,59.4546 261.001,57.276 261.698,55.1414 262.396,53.0591 263.093,51.0375 263.791,49.0845 264.488,47.2079 265.186,45.4154 265.883,43.7139 266.581,42.1105 267.278,40.6116 267.976,39.2233 268.673,37.9513 269.371,36.8008 270.068,35.7767 270.766,34.8832 271.463,34.1242 272.161,33.503 272.858,33.0225 273.556,32.685 274.253,32.4922 274.951,32.4453 275.648,32.5451 276.346,32.7917 277.043,33.1846 277.741,33.7231 278.438,34.4055 279.136,35.23 279.833,36.1939 280.531,37.2944 281.228,38.5279 281.926,39.8905 282.623,41.3776 283.321,42.9845 284.018,44.7058 284.716,46.5359 285.413,48.4687 286.111,50.4978 286.808,52.6165 287.506,54.8177 288.203,57.0941 288.901,59.4382 289.598,61.8424 290.296,64.2986 290.993,66.7989 291.691,69.3351 292.388,71.8989 293.086,74.4821 293.783,77.0764 294.481,79.6735 295.178,82.2652 295.876,84.8433 296.573,87.3999 297.271,89.927 297.968,92.4169 298.666,94.8622 299.363,97.2557 300.061,99.5902 300.758,101.859 301.456,104.056 302.153,106.175 302.851,108.21 303.548,110.156 304.246,112.007 304.943,113.761 305.641,115.411 306.338,116.955 307.036,118.389 307.733,119.712 308.431,120.919 309.128,122.01 309.826,122.983 310.523,123.837 311.221,124.573 311.918,125.189 312.616,125.687 313.313,126.067 314.011,126.331 314.708,126.482 315.406,126.52 316.103,126.45 316.801,126.273 317.498,125.995 318.196,125.618 318.893,125.147 319.591,124.586 320.288,123.941 320.986,123.216 321.683,122.417 322.381,121.55 323.078,120.62 323.776,119.633 324.473,118.597 325.171,117.516 325.868,116.398 326.566,115.248 327.263,114.074 327.961,112.882 328.658,111.678 329.356,110.469 330.053,109.261 330.751,108.061 331.448,106.874 332.146,105.707 332.843,104.566 333.541,103.455 334.238,102.381 334.936,101.349 335.633,100.363 336.331,99.4277 337.028,98.5483 337.726,97.7283 338.423,96.9713 339.121,96.2807 339.818,95.6594 340.516,95.1101 341.213,94.6349 341.911,94.2357 342.608,93.9141 343.306,93.671 344.003,93.5071 344.701,93.4228 345.398,93.4181 346.096,93.4924 346.793,93.645 347.491,93.8746 348.188,94.1798 348.886,94.5587 349.583,95.0091 350.281,95.5285 350.978,96.114 351.676,96.7625 352.373,97.4707 353.071,98.235 353.768,99.0515 354.466,99.9161 355.163,100.825 355.861,101.773 356.558,102.756 357.256,103.769 357.953,104.807 358.651,105.867 359.348,106.942 360.046,108.028 360.743,109.12 361.441,110.213 362.138,111.302 362.836,112.382 363.533,113.449 364.231,114.499 364.928,115.526 365.626,116.527 366.323,117.496 367.021,118.432 367.718,119.329 368.416,120.184 369.113,120.994 369.811,121.757 370.508,122.468 371.206,123.127 371.903,123.73 372.601,124.276 373.298,124.764 373.996,125.191 374.693,125.558 375.391,125.864 376.088,126.107 376.786,126.289 377.483,126.41 378.181,126.47 378.878,126.471 379.576,126.412 380.273,126.297 380.971,126.127 381.668,125.903 382.366,125.629 383.063,125.306 383.761,124.938 384.458,124.527 385.156,124.077 385.853,123.59 386.551,123.071 387.248,122.523 387.946,121.95 388.643,121.355 389.341,120.743 390.038,120.117 390.736,119.481 391.433,118.84 392.131,118.197 392.828,117.556 393.526,116.921 394.223,116.296 394.921,115.684 395.618,115.089 396.316,114.514 397.013,113.964 397.711,113.439 398.408,112.945 399.106,112.483 399.803,112.055 400.501,111.664 401.198,111.313 401.896,111.001 402.593,110.732 403.291,110.506 403.988,110.324 404.686,110.186 405.383,110.093 406.081,110.045 406.778,110.041 407.476,110.08 408.173,110.163 408.871,110.287 409.568,110.451 410.266,110.653 410.963,110.891 411.661,111.163 412.358,111.466 413.056,111.797 413.753,112.153 414.451,112.531 415.148,112.927 415.846,113.338 416.543,113.759 417.241,114.187 417.938,114.617 418.636,115.045 419.333,115.468 420.031,115.88 420.728,116.277 421.426,116.654 422.123,117.008 422.821,117.333 423.518,117.626 424.216,117.881 424.913,118.096 425.611,118.265 426.308,118.385 427.006,118.452 427.703,118.463 428.401,118.413 429.098,118.301 429.796,118.122 430.493,117.875 431.191,117.557 431.888,117.165 432.586,116.699 433.283,116.156 433.981,115.536 434.678,114.837 435.376,114.059 436.073,113.203 436.771,112.268 437.468,111.255 438.166,110.166 438.863,109 439.561,107.761 440.258,106.451 440.956,105.071 441.653,103.624 442.351,102.114 443.048,100.545 443.746,98.9192 444.443,97.2418 445.141,95.5169 445.838,93.7493 446.536,91.9438 447.233,90.1057 447.931,88.2403 448.628,86.3533 449.326,84.4505 450.023,82.5378 450.721,80.6213 451.418,78.7071 452.116,76.8015 452.813,74.9109 453.511,73.0415 454.208,71.1997 454.906,69.3918 455.603,67.6241 456.301,65.9028 456.998,64.2338 457.696,62.6233 458.393,61.0768 459.091,59.6 459.788,58.1982 460.486,56.8766 461.183,55.6401 461.881,54.4932 462.578,53.4401 463.276,52.4849 463.973,51.6311 464.671,50.8819 465.368,50.2402 466.066,49.7084 466.763,49.2885 467.461,48.9822 468.158,48.7906 468.856,48.7145 469.553,48.7541 470.251,48.9092 470.948,49.1792 471.646,49.5631 472.343,50.0592 473.041,50.6656 473.738,51.3798 474.436,52.1989 475.133,53.1196 475.831,54.1381 476.528,55.2502 477.226,56.4515 477.923,57.7368 478.621,59.1009 479.318,60.5382 480.016,62.0427 480.713,63.608 481.411,65.2277 482.108,66.8948 482.806,68.6024 483.503,70.3432 484.201,72.1098 484.898,73.8946 485.596,75.6899 486.293,77.4881 486.991,79.2812 487.688,81.0615 488.386,82.8211 489.083,84.5523 489.781,86.2473 490.478,87.8986 491.176,89.4988 491.873,91.0405 492.571,92.5166 493.268,93.9204 493.966,95.2451 494.663,96.4845 495.361,97.6327 496.058,98.6838 496.756,99.6327 497.453,100.474 498.151,101.205 498.848,101.819 499.546,102.314 500.243,102.686 500.941,102.933 501.638,103.053 502.336,103.044 503.033,102.904 503.731,102.634 504.428,102.232 505.126,101.7 505.823,101.038 506.521,100.248 507.218,99.3316 507.916,98.2913 508.613,97.1302 509.311,95.8518 510.008,94.4601 510.706,92.9595 511.403,91.355 512.101,89.652 512.798,87.8561 513.496,85.9738 514.193,84.0114 514.891,81.9759 515.588,79.8745 516.286,77.7149 516.983,75.5048 517.681,73.2522 518.378,70.9655 519.076,68.6531 519.773,66.3236 520.471,63.9857 521.168,61.6482 521.866,59.3199 522.563,57.0097 523.261,54.7264 523.958,52.4787 524.656,50.2753 525.353,48.1248 526.051,46.0356 526.748,44.0158 527.446,42.0734 528.143,40.2162 528.841,38.4515 529.538,36.7864 530.236,35.2278 530.933,33.7819 531.631,32.4549 532.328,31.2523 533.026,30.1792 533.723,29.2403 534.421,28.4398 535.118,27.7814 535.816,27.2682 536.513,26.903 537.211,26.6878 537.908,26.6242 538.606,26.7132 539.303,26.9554 540.001,27.3506 540.698,27.8983 541.396,28.5971 542.093,29.4453 542.791,30.4407 543.488,31.5805 544.186,32.8612 544.883,34.2791 545.581,35.8297 546.278,37.5083 546.976,39.3096 547.673,41.2278 548.371,43.2568 549.068,45.3901 549.766,47.6208 550.463,49.9416 551.161,52.345 551.858,54.8231 552.556,57.368 553.253,59.9712 553.951,62.6243 554.648,65.3186 555.346,68.0455 556.043,70.796 556.741,73.5613 557.438,76.3324 558.136,79.1004 558.833,81.8565 559.531,84.5919 560.228,87.2979 560.926,89.9662 561.623,92.5883 562.321,95.1562 563.018,97.662 563.716,100.098 564.413,102.457 565.111,104.733 565.808,106.917 566.506,109.006 567.203,110.991 567.901,112.869 568.598,114.634 569.296,116.282 569.993,117.808 570.691,119.21 571.388,120.483 572.086,121.627 572.783,122.638 573.481,123.515 574.178,124.257 574.876,124.865 575.573,125.337 576.271,125.675 576.968,125.879 577.666,125.952 578.363,125.895 579.061,125.711 579.758,125.404 580.456,124.976 581.153,124.432 581.851,123.776 582.548,123.013 583.246,122.149 583.943,121.188 584.641,120.137 585.338,119.001 586.036,117.788 586.733,116.504 587.431,115.157 588.128,113.752 588.826,112.298 589.523,110.802 590.221,109.271 590.918,107.713 591.616,106.136 592.313,104.548 593.011,102.956 593.708,101.367 594.406,99.7896 595.103,98.2306 595.801,96.6973 596.498,95.1969 597.196,93.7362 597.893,92.3218 598.591,90.9601 599.288,89.6572 599.986,88.4188 600.683,87.2506 601.381,86.1576 602.078,85.1446 602.776,84.2159 603.473,83.3756 604.171,82.6274 604.868,81.9742 605.566,81.419 606.263,80.964 606.961,80.6111 607.658,80.3617 608.356,80.2168 609.053,80.1769 609.751,80.2421 610.448,80.412 611.146,80.6858 611.843,81.0624 612.541,81.5399 613.238,82.1164 613.936,82.7894 614.633,83.5561 615.331,84.4131 616.028,85.357 616.726,86.3838 617.423,87.4893 618.121,88.6689 618.818,89.9179 619.516,91.2313 620.213,92.6037 620.911,94.0297 621.608,95.5037 622.306,97.0198 623.003,98.5722 623.701,100.155 624.398,101.761 625.096,103.386 625.793,105.023 626.491,106.665 627.188,108.307 627.886,109.943 628.583,111.567 629.281,113.172 629.978,114.753 630.676,116.306 631.373,117.823 632.071,119.301 632.768,120.734 633.466,122.118 634.163,123.448 634.861,124.72 635.558,125.93 636.256,127.076 636.953,128.153 637.651,129.158 638.348,130.09 639.046,130.947 639.743,131.725 640.441,132.424 641.138,133.043 641.836,133.581 642.533,134.038 643.231,134.414 643.928,134.708 644.626,134.922 645.323,135.057 646.021,135.114 646.718,135.094 647.416,135.001 648.113,134.835 648.811,134.6 649.508,134.299 650.206,133.934 650.903,133.509" stroke="#0071bc"/>
  </g>
 </g>
</svg>
