<?xml version='1.0' encoding='UTF-8' standalone='no'?>
<svg height="160pt" xmlns="http://www.w3.org/2000/svg" viewBox="0 0 720 160" xmlns:xlink="http://www.w3.org/1999/xlink" width="720pt">
 <title>gl2ps_renderer figure</title>
 <desc>
Creator: GL2PS 1.4.0, (C) 1999-2017 C. Geuzaine
For: Octave
CreationDate: Mon Jul  5 21:37:46 2021
</desc>
 <defs/>
 <polygon points="0,0 720,0 720,160 0,160" fill="#ffffff"/>
 <g>
  <polygon shape-rendering="crispEdges" points="0,160 720,160 720,0 0,0" fill="#ffffff"/>
  <clipPath id="cp00720160">
   <polygon points="0,160 720,160 720,0 0,0"/>
  </clipPath>
  <g clip-path="url(#cp00720160)">
   <polyline stroke-linecap="butt" stroke-linejoin="round" stroke-width="0.5" stroke="#0071bc" points="93.6007,59.3171 94.2982,66.3335 94.9957,73.4942 95.6932,80.6207 96.3907,87.5368 97.0882,94.0725 97.7857,100.068 98.4832,105.38 99.1807,109.879 99.8782,113.459 100.576,116.038 101.273,117.559 101.971,117.989 102.668,117.325 103.366,115.59 104.063,112.836 104.761,109.136 105.458,104.59 106.156,99.3174 106.853,93.4548 107.551,87.1541 108.248,80.5775 108.946,73.8936 109.643,67.2735 110.341,60.8862 111.038,54.8949 111.736,49.4525 112.433,44.6981 113.131,40.7532 113.828,37.7195 114.526,35.6753 115.223,34.6744 115.921,34.7447 116.618,35.8867 117.316,38.0746 118.013,41.2562 118.711,45.3542 119.408,50.2683 120.106,55.8776 120.803,62.0434 121.501,68.6129 122.198,75.4224 122.896,82.3019 123.593,89.0789 124.291,95.5825 124.988,101.648 125.686,107.121 126.383,111.861 127.081,115.744 127.778,118.668 128.476,120.552 129.173,121.342 129.871,121.009 130.568,119.552 131.266,116.998 131.963,113.399 132.661,108.835 133.358,103.408 134.056,97.2422 134.753,90.4809 135.451,83.282 136.148,75.815 136.846,68.2569 137.543,60.788 138.241,53.5877 138.938,46.8297 139.636,40.6787 140.333,35.2854 141.031,30.7839 141.728,27.2876 142.426,24.8869 143.123,23.6468 143.821,23.6054 144.518,24.7726 145.216,27.1301 145.913,30.6317 146.611,35.2037 147.308,40.7477 148.006,47.1415 148.703,54.2429 149.401,61.8924 150.098,69.9173 150.796,78.1353 151.493,86.3588 152.191,94.3995 152.888,102.073 153.586,109.201 154.283,115.62 154.981,121.181 155.678,125.753 156.376,129.228 157.073,131.525 157.771,132.588 158.468,132.388 159.166,130.928 159.863,128.236 160.561,124.371 161.258,119.418 161.956,113.487 162.653,106.709 163.351,99.2367 164.048,91.2368 164.746,82.8886 165.443,74.3792 166.141,65.8992 166.838,57.6384 167.536,49.7814 168.233,42.5036 168.931,35.9668 169.628,30.3158 170.326,25.6749 171.023,22.1454 171.721,19.8032 172.418,18.697 173.116,18.8474 173.813,20.2465 174.511,22.8581 175.208,26.6188 175.906,31.4392 176.603,37.2066 177.301,43.7871 177.998,51.0291 178.696,58.7668 179.393,66.824 180.091,75.0182 180.788,83.1647 181.486,91.0814 182.183,98.5922 182.881,105.531 183.578,111.748 184.276,117.107 184.973,121.495 185.671,124.823 186.368,127.024 187.066,128.059 187.763,127.915 188.461,126.608 189.158,124.179 189.856,120.695 190.553,116.245 191.251,110.941 191.948,104.915 192.646,98.3122 193.343,91.2898 194.041,84.0143 194.738,76.6559 195.436,69.385 196.133,62.3685 196.831,55.7652 197.528,49.7231 198.226,44.3753 198.923,39.8372 199.621,36.2041 200.318,33.5489 201.016,31.9208 201.713,31.344 202.411,31.818 203.108,33.3171 203.806,35.7917 204.503,39.1694 205.201,43.3575 205.898,48.2444 206.596,53.7036 207.293,59.5959 207.991,65.7735 208.688,72.0831 209.386,78.3701 210.083,84.482 210.781,90.2722 211.478,95.6037 212.176,100.352 212.873,104.407 213.571,107.679 214.268,110.097 214.966,111.61 215.663,112.194 216.361,111.843 217.058,110.579 217.756,108.442 218.453,105.496 219.151,101.825 219.848,97.5272 220.546,92.7186 221.243,87.5257 221.941,82.084 222.638,76.5343 223.336,71.0191 224.033,65.679 224.731,60.6497 225.428,56.0581 226.126,52.0195 226.823,48.6348 227.521,45.988 228.218,44.1443 228.916,43.1482 229.613,43.0228 230.311,43.7695 231.008,45.3672 231.706,47.7738 232.403,50.9268 233.101,54.7449 233.798,59.1302 234.496,63.9704 235.193,69.1421 235.891,74.5131 236.588,79.9464 237.286,85.3032 237.983,90.4463 238.681,95.2437 239.378,99.5717 240.076,103.318 240.773,106.385 241.471,108.69 242.168,110.171 242.866,110.786 243.563,110.512 244.261,109.35 244.958,107.323 245.656,104.474 246.353,100.867 247.051,96.5864 247.748,91.7308 248.446,86.4149 249.143,80.7652 249.841,74.9167 250.538,69.0102 251.236,63.1885 251.933,57.5935 252.631,52.3621 253.328,47.6236 254.026,43.496 254.723,40.0838 255.421,37.4746 256.118,35.7378 256.816,34.9223 257.513,35.0556 258.211,36.1429 258.908,38.1671 259.606,41.0886 260.303,44.847 261.001,49.3616 261.698,54.5337 262.396,60.249 263.093,66.3796 263.791,72.7875 264.488,79.3275 265.186,85.8508 265.883,92.2082 266.581,98.2535 267.278,103.847 267.976,108.86 268.673,113.174 269.371,116.688 270.068,119.318 270.766,121.002 271.463,121.696 272.161,121.38 272.858,120.057 273.556,117.752 274.253,114.513 274.951,110.409 275.648,105.528 276.346,99.9764 277.043,93.8755 277.741,87.3591 278.438,80.57 279.136,73.6578 279.833,66.7745 280.531,60.0716 281.228,53.6964 281.926,47.7892 282.623,42.4794 283.321,37.883 284.018,34.1003 284.716,31.213 285.413,29.2831 286.111,28.351 286.808,28.4351 287.506,29.5309 288.203,31.612 288.901,34.6298 289.598,38.5156 290.296,43.1813 290.993,48.5225 291.691,54.4197 292.388,60.7422 293.086,67.3504 293.783,74.0989 294.481,80.8403 295.178,87.4282 295.876,93.7202 296.573,99.5818 297.271,104.889 297.968,109.529 298.666,113.409 299.363,116.448 300.061,118.589 300.758,119.792 301.456,120.041 302.153,119.339 302.851,117.711 303.548,115.202 304.246,111.877 304.943,107.817 305.641,103.12 306.338,97.8959 307.036,92.2658 307.733,86.3585 308.431,80.3076 309.128,74.2483 309.826,68.3144 310.523,62.6352 311.221,57.333 311.918,52.5199 312.616,48.2955 313.313,44.7452 314.011,41.9378 314.708,39.9244 315.406,38.7376 316.103,38.3908 316.801,38.8779 317.498,40.1741 318.196,42.2366 318.893,45.0055 319.591,48.4056 320.288,52.3486 320.986,56.7346 321.683,61.4554 322.381,66.3964 323.078,71.4398 323.776,76.4672 324.473,81.3623 325.171,86.0138 325.868,90.3178 326.566,94.1801 327.263,97.5183 327.961,100.264 328.658,102.363 329.356,103.778 330.053,104.489 330.751,104.492 331.448,103.8 332.146,102.444 332.843,100.468 333.541,97.9326 334.238,94.9097 334.936,91.4825 335.633,87.7425 336.331,83.7879 337.028,79.7203 337.726,75.6432 338.423,71.6586 339.121,67.865 339.818,64.3549 340.516,61.2128 341.213,58.5129 341.911,56.3176 342.608,54.676 343.306,53.623 344.003,53.1782 344.701,53.346 345.398,54.1152 346.096,55.4596 346.793,57.3389 347.491,59.6994 348.188,62.4759 348.886,65.5928 349.583,68.9666 350.281,72.5076 350.978,76.1224 351.676,79.716 352.373,83.1943 353.071,86.4666 353.768,89.4473 354.466,92.0586 355.163,94.2319 355.861,95.91 356.558,97.0479 357.256,97.6143 357.953,97.5924 358.651,96.9799 359.348,95.7895 360.046,94.0484 360.743,91.7975 361.441,89.0908 362.138,85.9937 362.836,82.5816 363.533,78.9382 364.231,75.1532 364.928,71.3204 365.626,67.5353 366.323,63.8928 367.021,60.4851 367.718,57.3992 368.416,54.7148 369.113,52.5026 369.811,50.8224 370.508,49.7218 371.206,49.2347 371.903,49.3805 372.601,50.164 373.298,51.5745 373.996,53.5868 374.693,56.1608 375.391,59.2431 376.088,62.768 376.786,66.6587 377.483,70.8292 378.181,75.1863 378.878,79.6318 379.576,84.0643 380.273,88.3823 380.971,92.4856 381.668,96.2783 382.366,99.6708 383.063,102.582 383.761,104.94 384.458,106.687 385.156,107.777 385.853,108.178 386.551,107.875 387.248,106.866 387.946,105.168 388.643,102.81 389.341,99.8385 390.038,96.313 390.736,92.3055 391.433,87.899 392.131,83.186 392.828,78.266 393.526,73.2438 394.223,68.2269 394.921,63.3232 395.618,58.6386 396.316,54.2748 397.013,50.327 397.711,46.8816 398.408,44.0147 399.106,41.79 399.803,40.2576 400.501,39.4531 401.198,39.3963 401.896,40.091 402.593,41.5253 403.291,43.671 403.988,46.485 404.686,49.9097 405.383,53.8747 406.081,58.2978 406.778,63.0872 407.476,68.1432 408.173,73.3605 408.871,78.6304 409.568,83.8434 410.266,88.8909 410.963,93.6683 411.661,98.0766 412.358,102.025 413.056,105.433 413.753,108.23 414.451,110.36 415.148,111.782 415.846,112.467 416.543,112.405 417.241,111.6 417.938,110.072 418.636,107.855 419.333,104.999 420.031,101.566 420.728,97.6308 421.426,93.2777 422.123,88.5993 422.821,83.6945 423.518,78.6666 424.216,73.6203 424.913,68.6604 425.611,63.8888 426.308,59.4029 427.006,55.2932 427.703,51.6414 428.401,48.519 429.098,45.9857 429.796,44.0882 430.493,42.8593 431.191,42.3172 431.888,42.4655 432.586,43.2933 433.283,44.7749 433.981,46.8715 434.678,49.5312 435.376,52.6909 436.073,56.2776 436.771,60.2098 437.468,64.3997 438.166,68.755 438.863,73.1811 439.561,77.5829 440.258,81.8671 440.956,85.9442 441.653,89.7303 442.351,93.149 443.048,96.1328 443.746,98.6248 444.443,100.579 445.141,101.964 445.838,102.758 446.536,102.954 447.233,102.56 447.931,101.594 448.628,100.089 449.326,98.0875 450.023,95.6435 450.721,92.82 451.418,89.6871 452.116,86.3213 452.813,82.8028 453.511,79.2142 454.208,75.6384 454.906,72.1567 455.603,68.8471 456.301,65.7824 456.998,63.0284 457.696,60.6431 458.393,58.6749 459.091,57.1617 459.788,56.1303 460.486,55.5956 461.183,55.5609 461.881,56.0174 462.578,56.9448 463.276,58.3118 463.973,60.0772 464.671,62.1906 465.368,64.5938 466.066,67.2224 466.763,70.0072 467.461,72.8762 468.158,75.7559 468.856,78.5732 469.553,81.2576 470.251,83.7421 470.948,85.9656 471.646,87.8736 472.343,89.4202 473.041,90.5686 473.738,91.2922 474.436,91.5753 475.133,91.4131 475.831,90.8122 476.528,89.7902 477.226,88.3754 477.923,86.6057 478.621,84.5283 479.318,82.1979 480.016,79.6758 480.713,77.0283 481.411,74.325 482.108,71.6371 482.806,69.036 483.503,66.5908 484.201,64.3675 484.898,62.4267 485.596,60.8223 486.293,59.6003 486.991,58.7974 487.688,58.4402 488.386,58.5444 489.083,59.1143 489.781,60.1427 490.478,61.6108 491.176,63.489 491.873,65.7369 492.571,68.3045 493.268,71.1333 493.966,74.1577 494.663,77.3062 495.361,80.5034 496.058,83.6713 496.756,86.7318 497.453,89.6079 498.151,92.2258 498.848,94.5168 499.546,96.4188 500.243,97.8781 500.941,98.8503 501.638,99.3018 502.336,99.2111 503.033,98.5684 503.731,97.3771 504.428,95.6532 505.126,93.4255 505.823,90.7347 506.521,87.633 507.218,84.183 507.916,80.4561 508.613,76.5314 509.311,72.4937 510.008,68.4318 510.706,64.4364 511.403,60.5982 512.101,57.0059 512.798,53.744 513.496,50.8909 514.193,48.5171 514.891,46.6835 515.588,45.4398 516.286,44.8235 516.983,44.8587 517.681,45.5554 518.378,46.9093 519.076,48.9015 519.773,51.4989 520.471,54.6545 521.168,58.3086 521.866,62.39 522.563,66.817 523.261,71.4997 523.958,76.3412 524.656,81.2402 525.353,86.093 526.051,90.7956 526.748,95.2464 527.446,99.3476 528.143,103.008 528.841,106.147 529.538,108.69 530.236,110.578 530.933,111.766 531.631,112.221 532.328,111.926 533.026,110.882 533.723,109.104 534.421,106.623 535.118,103.486 535.816,99.7547 536.513,95.5022 537.211,90.8148 537.908,85.7879 538.606,80.525 539.303,75.1351 540.001,69.7305 540.698,64.4245 541.396,59.3288 542.093,54.551 542.791,50.1925 543.488,46.3461 544.186,43.094 544.883,40.5062 545.581,38.6385 546.278,37.5315 546.976,37.2099 547.673,37.6812 548.371,38.9365 549.068,40.9499 549.766,43.6791 550.463,47.0666 551.161,51.0408 551.858,55.5174 552.556,60.4013 553.253,65.5887 553.951,70.9694 554.648,76.4289 555.346,81.8515 556.043,87.122 556.741,92.1289 557.438,96.7667 558.136,100.938 558.833,104.556 559.531,107.545 560.228,109.845 560.926,111.409 561.623,112.209 562.321,112.231 563.018,111.481 563.716,109.978 564.413,107.76 565.111,104.881 565.808,101.409 566.506,97.422 567.203,93.0128 567.901,88.281 568.598,83.333 569.296,78.2798 569.993,73.2337 570.691,68.3062 571.388,63.6055 572.086,59.2342 572.783,55.2863 573.481,51.846 574.178,48.9852 574.876,46.7624 575.573,45.2209 576.271,44.3882 576.968,44.2755 577.666,44.8772 578.363,46.1715 579.061,48.1207 579.758,50.6722 580.456,53.76 581.153,57.3058 581.851,61.2217 582.548,65.4113 583.246,69.7727 583.943,74.201 584.641,78.59 585.338,82.8357 586.036,86.8379 586.733,90.5032 587.431,93.7467 588.128,96.4945 588.826,98.6848 589.523,100.27 590.221,101.217 590.918,101.509 591.616,101.146 592.313,100.141 593.011,98.5259 593.708,96.3462 594.406,93.661 595.103,90.542 595.801,87.0712 596.498,83.3392 597.196,79.4426 597.893,75.4823 598.591,71.5601 599.288,67.7772 599.986,64.2307 600.683,61.0122 601.381,58.2046 602.078,55.8808 602.776,54.1013 603.473,52.913 604.171,52.348 604.868,52.4226 605.566,53.1369 606.263,54.4749 606.961,56.4044 607.658,58.8784 608.356,61.8354 609.053,65.2015 609.751,68.8918 610.448,72.8128 611.146,76.8642 611.843,80.9417 612.541,84.9392 613.238,88.7521 613.936,92.2791 614.633,95.4252 615.331,98.1042 616.028,100.24 616.726,101.771 617.423,102.648 618.121,102.839 618.818,102.328 619.516,101.116 620.213,99.2233 620.911,96.6851 621.608,93.5544 622.306,89.8992 623.003,85.8013 623.701,81.3547 624.398,76.6633 625.096,71.8383 625.793,66.996 626.491,62.2546 627.188,57.7318 627.886,53.5415 628.583,49.7916 629.281,46.5807 629.978,43.9961 630.676,42.1111 631.373,40.9837 632.071,40.6546 632.768,41.1458 633.466,42.4606 634.163,44.5826 634.861,47.4761 635.558,51.0867 636.256,55.3424 636.953,60.1549 637.651,65.4218 638.348,71.0285 639.046,76.851 639.743,82.7586 640.441,88.6166 641.138,94.29 641.836,99.646 642.533,104.558 643.231,108.906 643.928,112.585 644.626,115.501 645.323,117.577 646.021,118.755 646.718,118.997 647.416,118.285 648.113,116.623 648.811,114.036 649.508,110.571 650.206,106.297 650.903,101.297" fill="none"/>
  </g>
 </g>
</svg>
