<?xml version='1.0' encoding='UTF-8' standalone='no'?>
<svg width="720pt" height="160pt" viewBox="0 0 720 160" xmlns="http://www.w3.org/2000/svg" xmlns:xlink="http://www.w3.org/1999/xlink">
 <title>gl2ps_renderer figure</title>
 <desc>
Creator: GL2PS 1.4.0, (C) 1999-2017 C. Geuzaine
For: Octave
CreationDate: Mon Jul  5 21:37:46 2021
</desc>
 <defs/>
 <polygon fill="#ffffff" points="0,0 720,0 720,160 0,160"/>
 <g>
  <polygon fill="#ffffff" shape-rendering="crispEdges" points="0,160 720,160 720,0 0,0"/>
  <clipPath id="cp00720160">
   <polygon points="0,160 720,160 720,0 0,0"/>
  </clipPath>
  <g clip-path="url(#cp00720160)">
   <polyline stroke-linecap="butt" stroke-linejoin="round" stroke-width="0.5" fill="none" stroke="#0071bc" points="93.6007,84.6889 94.2982,88.8151 94.9957,91.4423 95.6932,92.3531 96.3907,91.5147 97.0882,89.0785 97.7857,85.3606 98.4832,80.8055 99.1807,75.9355 99.8782,71.2939 100.576,67.3849 101.273,64.6201 101.971,63.2745 102.668,63.4583 103.366,65.1073 104.063,67.9918 104.761,71.7445 105.458,75.9027 106.156,79.9613 106.853,83.4302 107.551,85.8902 108.248,87.0401 108.946,86.7316 109.643,84.9864 110.341,81.9952 111.038,78.0968 111.736,73.7414 112.433,69.4404 113.131,65.7096 113.828,63.0108 114.526,61.6991 115.223,61.9806 115.921,63.8872 116.618,67.2689 117.316,71.8066 118.013,77.0437 118.711,82.4323 119.408,87.3913 120.106,91.3676 120.803,93.8969 121.501,94.6545 122.198,93.4933 122.896,90.463 123.593,85.8091 124.291,79.9514 124.988,73.4437 125.686,66.9197 126.383,61.0293 127.081,56.3726 127.778,53.4383 128.476,52.5532 129.173,53.8469 129.871,57.2368 130.568,62.4341 131.266,68.9707 131.963,76.2442 132.661,83.576 133.358,90.2778 134.056,95.7184 134.753,99.385 135.451,100.933 136.148,100.218 136.846,97.3091 137.543,92.4815 138.241,86.1869 138.938,79.0092 139.636,71.6073 140.333,64.651 141.031,58.7577 141.728,54.435 142.426,52.0351 143.123,51.7255 143.821,53.4786 144.518,57.0795 145.216,62.1527 145.913,68.203 146.611,74.6662 147.308,80.965 148.006,86.5635 148.703,91.0155 149.401,94.0016 150.098,95.352 150.796,95.0535 151.493,93.2409 152.191,90.1739 152.888,86.2033 153.586,81.7306 154.283,77.1652 154.981,72.8845 155.678,69.2003 156.376,66.3355 157.073,64.4118 157.771,63.4505 158.468,63.3834 159.166,64.0735 159.863,65.3409 160.561,66.9906 161.258,68.8395 161.956,70.7369 162.653,72.5791 163.351,74.3138 164.048,75.936 164.746,77.4761 165.443,78.9815 166.141,80.4965 166.838,82.0416 167.536,83.5977 168.233,85.0966 168.931,86.4199 169.628,87.4079 170.326,87.8769 171.023,87.6437 171.721,86.5541 172.418,84.5123 173.116,81.5061 173.813,77.625 174.511,73.0682 175.208,68.139 175.906,63.2265 176.603,58.7751 177.301,55.2431 177.998,53.0561 178.696,52.5586 179.393,53.9695 180.091,57.3476 180.788,62.5697 181.486,69.3269 182.183,77.1396 182.881,85.3904 183.578,93.3744 184.276,100.361 184.973,105.662 185.671,108.702 186.368,109.077 187.066,106.607 187.763,101.361 188.461,93.6651 189.158,84.0843 189.856,73.3812 190.553,62.4526 191.251,52.2521 191.948,43.7041 192.646,37.6171 193.343,34.6057 194.041,35.0279 194.738,38.9447 195.436,46.1065 196.133,55.968 196.831,67.7309 197.528,80.411 198.226,92.9238 198.923,104.181 199.621,113.188 200.318,119.135 201.016,121.474 201.713,119.966 202.411,114.711 203.108,106.135 203.806,94.9599 204.503,82.1337 205.201,68.7516 205.898,55.9562 206.596,44.8364 207.293,36.3316 207.991,31.1494 208.688,29.7052 209.386,32.0881 210.083,38.057 210.781,47.066 211.478,58.3169 212.176,70.8329 212.873,83.5474 213.571,95.3987 214.268,105.422 214.966,112.83 215.663,117.077 216.361,117.899 217.058,115.326 217.756,109.673 218.453,101.498 219.151,91.5473 219.848,80.6867 220.546,69.8189 221.243,59.8077 221.941,51.4063 222.638,45.2009 223.336,41.5699 224.033,40.6653 224.731,42.4141 225.428,46.539 226.126,52.5953 226.823,60.0193 227.521,68.183 228.218,76.4499 228.916,84.2252 229.613,90.9995 230.311,96.3785 231.008,100.102 231.706,102.047 232.403,102.221 233.101,100.746 233.798,97.8324 234.496,93.7542 235.193,88.8212 235.891,83.3547 236.588,77.669 237.286,72.0566 237.983,66.7811 238.681,62.0732 239.378,58.1308 240.076,55.1211 240.773,53.1809 241.471,52.4166 242.168,52.8994 242.866,54.6597 243.563,57.6769 244.261,61.8698 244.958,67.0872 245.656,73.102 246.353,79.6114 247.051,86.2437 247.748,92.5742 248.446,98.1497 249.143,102.521 249.841,105.279 250.538,106.095 251.236,104.76 251.933,101.214 252.631,95.5669 253.328,88.1109 254.026,79.308 254.723,69.7672 255.421,60.2039 256.118,51.3847 256.816,44.0651 257.513,38.9214 258.211,36.4862 258.908,37.0922 259.606,40.8309 260.303,47.5313 261.001,56.7608 261.698,67.8506 262.396,79.944 263.093,92.0639 263.791,103.194 264.488,112.368 265.186,118.757 265.883,121.745 266.581,120.995 267.278,116.483 267.976,108.509 268.673,97.6806 269.371,84.8636 270.068,71.1126 270.766,57.5805 271.463,45.4181 272.161,35.6728 272.858,29.194 273.556,26.5566 274.253,28.007 274.951,33.4394 275.648,42.4029 276.346,54.1401 277.043,67.653 277.741,81.7912 278.438,95.3533 279.136,107.193 279.833,116.32 280.531,121.985 281.228,123.746 281.926,121.501 282.623,115.497 283.321,106.298 284.018,94.7362 284.716,81.8302 285.413,68.6943 286.111,56.4381 286.808,46.0688 287.506,38.4063 288.203,34.0157 288.901,33.1656 289.598,35.8133 290.296,41.6193 290.993,49.9869 291.691,60.1242 292.388,71.121 293.086,82.0332 293.783,91.9666 294.481,100.153 295.178,106.009 295.876,109.18 296.573,109.558 297.271,107.272 297.968,102.669 298.666,96.2655 299.363,88.6904 300.061,80.6251 300.758,72.7384 301.456,65.6304 302.153,59.7856 302.851,55.5424 303.548,53.0773 304.246,52.4066 304.943,53.4024 305.641,55.8208 306.338,59.3373 307.036,63.5863 307.733,68.1979 308.431,72.8317 309.128,77.2007 309.826,81.0862 310.523,84.3428 311.221,86.894 311.918,88.7199 312.616,89.8414 313.313,90.3023 314.011,90.1531 314.708,89.4393 315.406,88.195 316.103,86.4431 316.801,84.2022 317.498,81.4976 318.196,78.3748 318.893,74.913 319.591,71.2355 320.288,67.5147 320.986,63.9689 321.683,60.8519 322.381,58.4338 323.078,56.9762 323.776,56.7023 324.473,57.7672 325.171,60.2313 325.868,64.0399 326.566,69.0135 327.263,74.8502 327.961,81.1405 328.658,87.397 329.356,93.0928 330.053,97.7086 330.751,100.783 331.448,101.962 332.146,101.037 332.843,97.9772 333.541,92.9415 334.238,86.2756 334.936,78.4888 335.633,70.2144 336.331,62.1561 337.028,55.0251 337.726,49.4745 338.423,46.0355 339.121,45.0641 339.818,46.7029 340.516,50.8613 341.213,57.2182 341.911,65.2469 342.608,74.2597 343.306,83.4689 344.003,92.0588 344.701,99.2614 345.398,104.428 346.096,107.092 346.793,107.012 347.491,104.198 348.188,98.9105 348.886,91.6345 349.583,83.0377 350.281,73.9053 350.978,65.0664 351.676,57.3158 352.373,51.3396 353.071,47.6508 353.768,46.5431 354.466,48.0655 355.163,52.021 355.861,57.9889 356.558,65.3687 357.256,73.441 357.953,81.4388 358.651,88.622 359.348,94.3488 360.046,98.1351 360.743,99.6978 361.441,98.9769 362.138,96.135 362.836,91.5351 363.533,85.698 364.231,79.246 364.928,72.8367 365.626,67.0963 366.323,62.5569 367.021,59.6058 367.718,58.4513 368.416,59.1076 369.113,61.4008 369.811,64.9944 370.508,69.4308 371.206,74.1848 371.903,78.7222 372.601,82.5582 373.298,85.3083 373.996,86.7266 374.693,86.7285 375.391,85.3947 376.088,82.9562 376.786,79.7642 377.483,76.2461 378.181,72.8544 378.878,70.0136 379.576,68.0718 380.273,67.2607 380.971,67.6706 381.668,69.2413 382.366,71.7703 383.063,74.9377 383.761,78.3441 384.458,81.5576 385.156,84.1646 385.853,85.8183 386.551,86.2798 387.248,85.4471 387.946,83.3686 388.643,80.2394 389.341,76.3815 390.038,72.209 390.736,68.1832 391.433,64.7617 392.131,62.3473 392.828,61.2425 393.526,61.6149 394.223,63.4764 394.921,66.6795 395.618,70.9306 396.316,75.8195 397.013,80.8612 397.711,85.5465 398.408,89.3948 399.106,92.005 399.803,93.0974 400.501,92.5439 401.198,90.3813 401.896,86.8087 402.593,82.1663 403.291,76.9016 403.988,71.5226 404.686,66.5469 405.383,62.4484 406.081,59.6104 406.778,58.2876 407.476,58.5825 408.173,60.4372 408.871,63.6423 409.568,67.861 410.266,72.6661 410.963,77.5853 411.661,82.1505 412.358,85.9447 413.056,88.6433 413.753,90.0434 414.451,90.0805 415.148,88.8289 415.846,86.4883 416.543,83.3568 417.241,79.795 417.938,76.1838 418.636,72.8827 419.333,70.1915 420.031,68.3211 420.728,67.3747 421.426,67.3435 422.123,68.1143 422.821,69.4902 423.518,71.2202 424.216,73.0335 424.913,74.6762 425.611,75.9434 426.308,76.7046 427.006,76.9186 427.703,76.6364 428.401,75.9912 429.098,75.1778 429.796,74.4233 430.493,73.9527 431.191,73.9548 431.888,74.5511 432.586,75.7738 433.283,77.5543 433.981,79.725 434.678,82.0347 435.376,84.1758 436.073,85.8201 436.771,86.6611 437.468,86.4548 438.166,85.0571 438.863,82.4508 439.561,78.7601 440.258,74.2483 440.956,69.3002 441.653,64.3885 442.351,60.0285 443.048,56.724 443.746,54.9123 444.443,54.9115 445.141,56.8786 445.838,60.7817 446.536,66.3905 447.233,73.288 447.931,80.9015 448.628,88.5514 449.326,95.514 450.023,101.091 450.721,104.682 451.418,105.843 452.116,104.345 452.813,100.2 453.511,93.669 454.208,85.2524 454.906,75.6448 455.603,65.6784 456.301,56.2472 456.998,48.2244 457.696,42.3794 458.393,39.3022 459.091,39.3437 459.788,42.5776 460.486,48.7877 461.183,57.4822 461.881,67.9348 462.578,79.248 463.276,90.4337 463.973,100.503 464.671,108.555 465.368,113.865 466.066,115.946 466.763,114.596 467.461,109.918 468.158,102.312 468.856,92.4367 469.553,81.1483 470.251,69.426 470.948,58.2809 471.646,48.6661 472.343,41.3919 473.041,37.0553 473.738,35.9895 474.436,38.2392 475.133,43.5611 475.831,51.4516 476.528,61.1967 477.226,71.9398 477.923,82.761 478.621,92.7591 479.318,101.13 480.016,107.232 480.713,110.639 481.411,111.165 482.108,108.874 482.806,104.061 483.503,97.2151 484.201,88.9724 484.898,80.049 485.596,71.1784 486.293,63.0482 486.991,56.2447 487.688,51.2113 488.386,48.222 489.083,47.3716 489.781,48.5828 490.478,51.6277 491.176,56.1601 491.873,61.7549 492.571,67.9502 493.268,74.287 493.966,80.3447 494.663,85.7667 495.361,90.2778 496.058,93.6909 496.756,95.9053 497.453,96.8972 498.151,96.7063 498.848,95.4202 499.546,93.159 500.243,90.0638 500.941,86.2878 501.638,81.993 502.336,77.3503 503.033,72.5422 503.731,67.7667 504.428,63.2393 505.126,59.1921 505.823,55.8679 506.521,53.5086 507.218,52.338 507.916,52.5405 508.613,54.2372 509.311,57.4626 510.008,62.1456 510.706,68.0963 511.403,75.0042 512.101,82.4468 512.798,89.9117 513.496,96.8303 514.193,102.621 514.891,106.742 515.588,108.74 516.286,108.301 516.983,105.292 517.681,99.7878 518.378,92.0812 519.076,82.6727 519.773,72.2414 520.471,61.5963 521.168,51.6121 521.866,43.1552 522.563,37.0053 523.261,33.7815 523.958,33.8786 524.656,37.4215 525.353,44.2416 526.051,53.8794 526.748,65.6141 527.446,78.5182 528.143,91.5326 528.841,103.556 529.538,113.544 530.236,120.599 530.933,124.058 531.631,123.555 532.328,119.061 533.026,110.89 533.723,99.6822 534.421,86.3503 535.118,72.0017 535.816,57.8446 536.513,45.0818 537.211,34.8051 537.908,27.8973 538.606,24.9547 539.303,26.2324 540.001,31.6222 540.698,40.6616 541.396,52.5751 542.093,66.3433 542.791,80.7937 543.488,94.7041 544.186,106.91 544.883,116.405 545.581,122.429 546.278,124.529 546.976,122.592 547.673,116.855 548.371,107.869 549.068,96.4538 549.766,83.612 550.463,70.4434 551.161,58.0449 551.858,47.416 552.556,39.3762 553.253,34.4998 553.951,33.0759 554.648,35.0939 555.346,40.2571 556.043,48.02 556.741,57.646 557.438,68.2798 558.136,79.0259 558.833,89.0266 559.531,97.5325 560.228,103.959 560.926,107.926 561.623,109.273 562.321,108.062 563.018,104.551 563.716,99.1599 564.413,92.4204 565.111,84.9249 565.808,77.271 566.506,70.0135 567.203,63.6242 567.901,58.4644 568.598,54.7695 569.296,52.6477 569.993,52.0889 570.691,52.9836 571.388,55.1464 572.086,58.3425 572.783,62.3124 573.481,66.7933 574.178,71.5348 574.876,76.3087 575.573,80.9122 576.271,85.1671 576.968,88.9152 577.666,92.0139 578.363,94.3325 579.061,95.7515 579.758,96.167 580.456,95.4985 581.153,93.701 581.851,90.779 582.548,86.8006 583.246,81.9085 583.943,76.326 584.641,70.3554 585.338,64.3672 586.036,58.7797 586.733,54.0304 587.431,50.5399 588.128,48.673 588.826,48.6987 589.523,50.7561 590.221,54.828 590.918,60.727 591.616,68.0971 592.313,76.4315 593.011,85.1059 593.708,93.4262 594.406,100.686 595.103,106.23 595.801,109.516 596.498,110.17 597.196,108.029 597.893,103.165 598.591,95.8927 599.288,86.7488 599.986,76.4528 600.683,65.8497 601.381,55.8375 602.078,47.2881 602.776,40.9675 603.473,37.4639 604.171,37.13 604.868,40.046 605.566,46.0064 606.263,54.5338 606.961,64.9176 607.658,76.2747 608.356,87.6276 609.053,97.9919 609.751,106.465 610.448,112.309 611.146,115.019 611.843,114.365 612.541,110.42 613.238,103.549 613.936,94.3724 614.633,83.7149 615.331,72.5242 616.028,61.7855 616.726,52.4313 617.423,45.257 618.121,40.8499 618.818,39.5391 619.516,41.3695 620.213,46.103 620.911,53.2465 621.608,62.1024 622.306,71.8379 623.003,81.5655 623.701,90.4261 624.398,97.6677 625.096,102.712 625.793,105.202 626.491,105.028 627.188,102.328 627.886,97.4647 628.583,90.9846 629.281,83.5551 629.978,75.8977 630.676,68.7167 631.373,62.6321 632.071,58.1249 632.768,55.4978 633.466,54.8557 634.163,56.1075 634.861,58.986 635.558,63.0867 636.256,67.916 636.953,72.9482 637.651,77.6809 638.348,81.6854 639.046,84.6463 639.743,86.3863 640.441,86.8745 641.138,86.2188 641.836,84.6419 642.533,82.4477 643.231,79.9791 643.928,77.5739 644.626,75.5252 645.323,74.0476 646.021,73.256 646.718,73.1578 647.416,73.6579 648.113,74.5779 648.811,75.6844 649.508,76.7236 650.206,77.4586 650.903,77.7029"/>
   <polyline stroke-linecap="butt" stroke-linejoin="round" stroke-width="0.5" stroke-dasharray="4,4,4,4" fill="none" stroke="#ff0000" points="93.6007,54.8268 94.2982,55.1103 94.9957,55.3909 95.6932,55.6669 96.3907,55.9367 97.0882,56.1987 97.7857,56.4513 98.4832,56.6929 99.1807,56.9222 99.8782,57.1377 100.576,57.338 101.273,57.522 101.971,57.6886 102.668,57.8365 103.366,57.965 104.063,58.0732 104.761,58.1602 105.458,58.2255 106.156,58.2687 106.853,58.2892 107.551,58.2869 108.248,58.2615 108.946,58.2132 109.643,58.1419 110.341,58.048 111.038,57.9318 111.736,57.7937 112.433,57.6344 113.131,57.4546 113.828,57.2551 114.526,57.0369 115.223,56.801 115.921,56.5485 116.618,56.2807 117.316,55.999 118.013,55.7046 118.711,55.3991 119.408,55.0841 120.106,54.7611 120.803,54.4319 121.501,54.098 122.198,53.7613 122.896,53.4234 123.593,53.0862 124.291,52.7514 124.988,52.4208 125.686,52.0962 126.383,51.7792 127.081,51.4717 127.778,51.1752 128.476,50.8913 129.173,50.6217 129.871,50.3678 130.568,50.1311 131.266,49.9128 131.963,49.7141 132.661,49.5364 133.358,49.3805 134.056,49.2474 134.753,49.1379 135.451,49.0527 136.148,48.9924 136.846,48.9574 137.543,48.948 138.241,48.9643 138.938,49.0064 139.636,49.0742 140.333,49.1673 141.031,49.2854 141.728,49.4279 142.426,49.5942 143.123,49.7834 143.821,49.9946 144.518,50.2266 145.216,50.4783 145.913,50.7483 146.611,51.035 147.308,51.3371 148.006,51.6526 148.703,51.98 149.401,52.3172 150.098,52.6623 150.796,53.0133 151.493,53.368 152.191,53.7243 152.888,54.08 153.586,54.4327 154.283,54.7802 154.981,55.1202 155.678,55.4504 156.376,55.7684 157.073,56.0719 157.771,56.3587 158.468,56.6265 159.166,56.8731 159.863,57.0964 160.561,57.2942 161.258,57.4646 161.956,57.6056 162.653,57.7155 163.351,57.7925 164.048,57.835 164.746,57.8415 165.443,57.8106 166.141,57.7413 166.838,57.6323 167.536,57.4829 168.233,57.2921 168.931,57.0595 169.628,56.7847 170.326,56.4672 171.023,56.1072 171.721,55.7046 172.418,55.2598 173.116,54.7732 173.813,54.2455 174.511,53.6774 175.208,53.0699 175.906,52.4243 176.603,51.7418 177.301,51.024 177.998,50.2724 178.696,49.4891 179.393,48.6758 180.091,47.8348 180.788,46.9683 181.486,46.0787 182.183,45.1685 182.881,44.2403 183.578,43.2969 184.276,42.3411 184.973,41.3757 185.671,40.4039 186.368,39.4285 187.066,38.4527 187.763,37.4795 188.461,36.5122 189.158,35.5538 189.856,34.6075 190.553,33.6765 191.251,32.7638 191.948,31.8725 192.646,31.0056 193.343,30.166 194.041,29.3566 194.738,28.5802 195.436,27.8394 196.133,27.1369 196.831,26.4749 197.528,25.8559 198.226,25.282 198.923,24.7552 199.621,24.2773 200.318,23.8499 201.016,23.4747 201.713,23.1528 202.411,22.8853 203.108,22.6732 203.806,22.5173 204.503,22.4178 205.201,22.3753 205.898,22.3897 206.596,22.4609 207.293,22.5886 207.991,22.7721 208.688,23.0108 209.386,23.3036 210.083,23.6493 210.781,24.0466 211.478,24.4938 212.176,24.9891 212.873,25.5306 213.571,26.1161 214.268,26.7433 214.966,27.4097 215.663,28.1126 216.361,28.8493 217.058,29.6167 217.756,30.412 218.453,31.2318 219.151,32.0729 219.848,32.932 220.546,33.8057 221.243,34.6904 221.941,35.5826 222.638,36.4789 223.336,37.3755 224.033,38.2689 224.731,39.1555 225.428,40.0317 226.126,40.894 226.823,41.739 227.521,42.5632 228.218,43.3633 228.916,44.136 229.613,44.8783 230.311,45.5871 231.008,46.2595 231.706,46.8927 232.403,47.4842 233.101,48.0315 233.798,48.5324 234.496,48.9847 235.193,49.3866 235.891,49.7364 236.588,50.0326 237.286,50.274 237.983,50.4593 238.681,50.5879 239.378,50.6591 240.076,50.6724 240.773,50.6278 241.471,50.5253 242.168,50.3652 242.866,50.1479 243.563,49.8744 244.261,49.5455 244.958,49.1625 245.656,48.7267 246.353,48.2398 247.051,47.7036 247.748,47.1201 248.446,46.4916 249.143,45.8204 249.841,45.1092 250.538,44.3606 251.236,43.5775 251.933,42.763 252.631,41.9202 253.328,41.0524 254.026,40.1629 254.723,39.2552 255.421,38.3329 256.118,37.3995 256.816,36.4586 257.513,35.5141 258.211,34.5695 258.908,33.6287 259.606,32.6952 260.303,31.7728 261.001,30.865 261.698,29.9756 262.396,29.108 263.093,28.2656 263.791,27.4519 264.488,26.67 265.186,25.9231 265.883,25.2141 266.581,24.5461 267.278,23.9215 267.976,23.343 268.673,22.813 269.371,22.3337 270.068,21.9069 270.766,21.5347 271.463,21.2184 272.161,20.9596 272.858,20.7594 273.556,20.6187 274.253,20.5384 274.951,20.5189 275.648,20.5605 276.346,20.6632 277.043,20.8269 277.741,21.0513 278.438,21.3356 279.136,21.6792 279.833,22.0808 280.531,22.5393 281.228,23.0533 281.926,23.621 282.623,24.2407 283.321,24.9102 284.018,25.6274 284.716,26.39 285.413,27.1953 286.111,28.0408 286.808,28.9235 287.506,29.8407 288.203,30.7892 288.901,31.7659 289.598,32.7677 290.296,33.7911 290.993,34.8329 291.691,35.8896 292.388,36.9579 293.086,38.0342 293.783,39.1152 294.481,40.1973 295.178,41.2772 295.876,42.3514 296.573,43.4166 297.271,44.4696 297.968,45.5071 298.666,46.5259 299.363,47.5232 300.061,48.4959 300.758,49.4413 301.456,50.3567 302.153,51.2395 302.851,52.0874 303.548,52.8982 304.246,53.6697 304.943,54.4002 305.641,55.0879 306.338,55.7313 307.036,56.3289 307.733,56.8798 308.431,57.3829 309.128,57.8375 309.826,58.2429 310.523,58.5989 311.221,58.9053 311.918,59.1621 312.616,59.3695 313.313,59.528 314.011,59.6381 314.708,59.7007 315.406,59.7168 316.103,59.6874 316.801,59.6139 317.498,59.4978 318.196,59.3408 318.893,59.1445 319.591,58.9108 320.288,58.6419 320.986,58.3399 321.683,58.0071 322.381,57.6457 323.078,57.2583 323.776,56.8473 324.473,56.4153 325.171,55.965 325.868,55.4991 326.566,55.0201 327.263,54.5309 327.961,54.0342 328.658,53.5326 329.356,53.0288 330.053,52.5256 330.751,52.0254 331.448,51.531 332.146,51.0447 332.843,50.569 333.541,50.1063 334.238,49.6588 334.936,49.2286 335.633,48.8178 336.331,48.4282 337.028,48.0618 337.726,47.7201 338.423,47.4047 339.121,47.1169 339.818,46.8581 340.516,46.6292 341.213,46.4312 341.911,46.2649 342.608,46.1309 343.306,46.0296 344.003,45.9613 344.701,45.9262 345.398,45.9242 346.096,45.9552 346.793,46.0187 347.491,46.1144 348.188,46.2416 348.886,46.3995 349.583,46.5871 350.281,46.8035 350.978,47.0475 351.676,47.3177 352.373,47.6128 353.071,47.9313 353.768,48.2715 354.466,48.6317 355.163,49.0103 355.861,49.4053 356.558,49.8148 357.256,50.237 357.953,50.6698 358.651,51.1112 359.348,51.5591 360.046,52.0116 360.743,52.4666 361.441,52.9219 362.138,53.3757 362.836,53.8259 363.533,54.2706 364.231,54.7079 364.928,55.1358 365.626,55.5527 366.323,55.9568 367.021,56.3466 367.718,56.7203 368.416,57.0767 369.113,57.4143 369.811,57.7319 370.508,58.0284 371.206,58.3028 371.903,58.5541 372.601,58.7817 373.298,58.9848 373.996,59.163 374.693,59.3159 375.391,59.4431 376.088,59.5447 376.786,59.6206 377.483,59.6709 378.181,59.6959 378.878,59.6961 379.576,59.6718 380.273,59.6238 380.971,59.5528 381.668,59.4597 382.366,59.3453 383.063,59.2108 383.761,59.0574 384.458,58.8862 385.156,58.6986 385.853,58.4959 386.551,58.2797 387.248,58.0514 387.946,57.8125 388.643,57.5647 389.341,57.3096 390.038,57.0488 390.736,56.7839 391.433,56.5167 392.131,56.2487 392.828,55.9816 393.526,55.717 394.223,55.4565 394.921,55.2015 395.618,54.9537 396.316,54.7143 397.013,54.4848 397.711,54.2664 398.408,54.0604 399.106,53.8678 399.803,53.6896 400.501,53.5268 401.198,53.3802 401.896,53.2505 402.593,53.1383 403.291,53.0441 403.988,52.9681 404.686,52.9107 405.383,52.872 406.081,52.8519 406.778,52.8503 407.476,52.8668 408.173,52.9012 408.871,52.9529 409.568,53.0213 410.266,53.1055 410.963,53.2047 411.661,53.318 412.358,53.4442 413.056,53.5822 413.753,53.7305 414.451,53.888 415.148,54.053 415.846,54.2241 416.543,54.3996 417.241,54.5778 417.938,54.7571 418.636,54.9356 419.333,55.1116 420.031,55.2832 420.728,55.4486 421.426,55.6059 422.123,55.7532 422.821,55.8887 423.518,56.0107 424.216,56.1172 424.913,56.2066 425.611,56.2771 426.308,56.3271 427.006,56.3551 427.703,56.3595 428.401,56.3389 429.098,56.292 429.796,56.2176 430.493,56.1146 431.191,55.9819 431.888,55.8188 432.586,55.6245 433.283,55.3983 433.981,55.1398 434.678,54.8487 435.376,54.5247 436.073,54.168 436.771,53.7784 437.468,53.3564 438.166,52.9024 438.863,52.4168 439.561,51.9006 440.258,51.3544 440.956,50.7794 441.653,50.1767 442.351,49.5476 443.048,48.8937 443.746,48.2163 444.443,47.5174 445.141,46.7987 445.838,46.0622 446.536,45.3099 447.233,44.544 447.931,43.7668 448.628,42.9806 449.326,42.1877 450.023,41.3908 450.721,40.5922 451.418,39.7946 452.116,39.0006 452.813,38.2129 453.511,37.4339 454.208,36.6665 454.906,35.9133 455.603,35.1767 456.301,34.4595 456.998,33.7641 457.696,33.093 458.393,32.4487 459.091,31.8333 459.788,31.2493 460.486,30.6986 461.183,30.1834 461.881,29.7055 462.578,29.2667 463.276,28.8687 463.973,28.513 464.671,28.2008 465.368,27.9334 466.066,27.7118 466.763,27.5369 467.461,27.4093 468.158,27.3294 468.856,27.2977 469.553,27.3142 470.251,27.3788 470.948,27.4913 471.646,27.6513 472.343,27.858 473.041,28.1107 473.738,28.4083 474.436,28.7496 475.133,29.1332 475.831,29.5575 476.528,30.0209 477.226,30.5214 477.923,31.057 478.621,31.6254 479.318,32.2243 480.016,32.8511 480.713,33.5033 481.411,34.1782 482.108,34.8728 482.806,35.5843 483.503,36.3097 484.201,37.0457 484.898,37.7894 485.596,38.5375 486.293,39.2867 486.991,40.0338 487.688,40.7756 488.386,41.5088 489.083,42.2301 489.781,42.9364 490.478,43.6244 491.176,44.2912 491.873,44.9335 492.571,45.5486 493.268,46.1335 493.966,46.6855 494.663,47.2019 495.361,47.6803 496.058,48.1183 496.756,48.5136 497.453,48.8644 498.151,49.1685 498.848,49.4245 499.546,49.6307 500.243,49.7859 500.941,49.8889 501.638,49.9388 502.336,49.935 503.033,49.8768 503.731,49.7641 504.428,49.5968 505.126,49.3751 505.823,49.0993 506.521,48.77 507.218,48.3882 507.916,47.9547 508.613,47.4709 509.311,46.9382 510.008,46.3584 510.706,45.7331 511.403,45.0646 512.101,44.355 512.798,43.6067 513.496,42.8224 514.193,42.0047 514.891,41.1566 515.588,40.2811 516.286,39.3812 516.983,38.4603 517.681,37.5218 518.378,36.569 519.076,35.6055 519.773,34.6348 520.471,33.6607 521.168,32.6868 521.866,31.7166 522.563,30.754 523.261,29.8027 523.958,28.8661 524.656,27.9481 525.353,27.052 526.051,26.1815 526.748,25.3399 527.446,24.5306 528.143,23.7567 528.841,23.0214 529.538,22.3277 530.236,21.6782 530.933,21.0758 531.631,20.5229 532.328,20.0218 533.026,19.5747 533.723,19.1835 534.421,18.8499 535.118,18.5756 535.816,18.3618 536.513,18.2096 537.211,18.1199 537.908,18.0934 538.606,18.1305 539.303,18.2314 540.001,18.3961 540.698,18.6243 541.396,18.9155 542.093,19.2689 542.791,19.6836 543.488,20.1585 544.186,20.6922 544.883,21.2829 545.581,21.929 546.278,22.6285 546.976,23.379 547.673,24.1783 548.371,25.0237 549.068,25.9126 549.766,26.842 550.463,27.809 551.161,28.8104 551.858,29.843 552.556,30.9033 553.253,31.988 553.951,33.0935 554.648,34.2161 555.346,35.3523 556.043,36.4983 556.741,37.6505 557.438,38.8052 558.136,39.9585 558.833,41.1069 559.531,42.2466 560.228,43.3741 560.926,44.4859 561.623,45.5785 562.321,46.6484 563.018,47.6925 563.716,48.7075 564.413,49.6905 565.111,50.6386 565.808,51.5489 566.506,52.419 567.203,53.2463 567.901,54.0287 568.598,54.7641 569.296,55.4507 569.993,56.0867 570.691,56.6707 571.388,57.2014 572.086,57.6778 572.783,58.0991 573.481,58.4646 574.178,58.774 574.876,59.027 575.573,59.2238 576.271,59.3645 576.968,59.4497 577.666,59.48 578.363,59.4563 579.061,59.3798 579.758,59.2516 580.456,59.0734 581.153,58.8467 581.851,58.5734 582.548,58.2556 583.246,57.8953 583.943,57.495 584.641,57.057 585.338,56.5839 586.036,56.0785 586.733,55.5435 587.431,54.9819 588.128,54.3967 588.826,53.7908 589.523,53.1673 590.221,52.5295 590.918,51.8806 591.616,51.2235 592.313,50.5617 593.011,49.8982 593.708,49.2363 594.406,48.579 595.103,47.9294 595.801,47.2906 596.498,46.6654 597.196,46.0567 597.893,45.4674 598.591,44.9 599.288,44.3572 599.986,43.8412 600.683,43.3544 601.381,42.899 602.078,42.4769 602.776,42.09 603.473,41.7399 604.171,41.4281 604.868,41.1559 605.566,40.9246 606.263,40.735 606.961,40.588 607.658,40.484 608.356,40.4237 609.053,40.407 609.751,40.4342 610.448,40.505 611.146,40.6191 611.843,40.776 612.541,40.975 613.238,41.2152 613.936,41.4956 614.633,41.815 615.331,42.1721 616.028,42.5654 616.726,42.9932 617.423,43.4539 618.121,43.9454 618.818,44.4658 619.516,45.013 620.213,45.5849 620.911,46.179 621.608,46.7932 622.306,47.4249 623.003,48.0717 623.701,48.7311 624.398,49.4006 625.096,50.0776 625.793,50.7596 626.491,51.4439 627.188,52.1281 627.886,52.8096 628.583,53.4861 629.281,54.155 629.978,54.8139 630.676,55.4607 631.373,56.093 632.071,56.7087 632.768,57.3058 633.466,57.8824 634.163,58.4366 634.861,58.9666 635.558,59.471 636.256,59.9482 636.953,60.3969 637.651,60.816 638.348,61.2043 639.046,61.5611 639.743,61.8854 640.441,62.1768 641.138,62.4347 641.836,62.6589 642.533,62.8492 643.231,63.0057 643.928,63.1283 644.626,63.2175 645.323,63.2737 646.021,63.2974 646.718,63.2893 647.416,63.2503 648.113,63.1814 648.811,63.0835 649.508,62.9578 650.206,62.8057 650.903,62.6286"/>
  </g>
 </g>
</svg>
