<?xml version="1.0" encoding="UTF-8" standalone="no"?>
<svg
   xmlns:dc="http://purl.org/dc/elements/1.1/"
   xmlns:cc="http://creativecommons.org/ns#"
   xmlns:rdf="http://www.w3.org/1999/02/22-rdf-syntax-ns#"
   xmlns:svg="http://www.w3.org/2000/svg"
   xmlns="http://www.w3.org/2000/svg"
   width="210mm"
   height="297mm"
   viewBox="0 0 210 297"
   version="1.1"
   id="svg8">
  <defs
     id="defs2" />
  <metadata
     id="metadata5">
    <rdf:RDF>
      <cc:Work
         rdf:about="">
        <dc:format>image/svg+xml</dc:format>
        <dc:type
           rdf:resource="http://purl.org/dc/dcmitype/StillImage" />
        <dc:title></dc:title>
      </cc:Work>
    </rdf:RDF>
  </metadata>
  <g
     id="layer1">
    <path
       style="fill:#b0b0b0;fill-opacity:1;stroke:none;stroke-width:0.264583px;stroke-linecap:butt;stroke-linejoin:miter;stroke-opacity:1"
       d="m 108.48118,257.59014 h -4.95315 V 163.3084 H 65.568996 l -13.540038,-40.10808 108.059632,-0.005 -13.64818,40.1126 h -37.95923 z"
       id="path866" />
    <path
       style="fill:none;stroke:#000000;stroke-width:2;stroke-linecap:butt;stroke-linejoin:miter;stroke-miterlimit:4;stroke-dasharray:none;stroke-opacity:1"
       d="M 103.52803,257.59015 V 163.3084 H 65.568997 L 48.149096,111.90271"
       id="path10" />
    <path
       style="fill:none;stroke:#000000;stroke-width:2;stroke-linecap:butt;stroke-linejoin:miter;stroke-miterlimit:4;stroke-dasharray:none;stroke-opacity:1"
       d="M 108.48118,257.59015 V 163.3084 h 37.95923 l 17.42,-51.40569"
       id="path41" />
    <path
       id="path868"
       style="fill:#b0b0b0;fill-opacity:1;stroke:none;stroke-width:2;stroke-miterlimit:4;stroke-dasharray:none"
       d="m 106.52089,259.92458 c -0.33779,0.59807 -0.61809,1.22989 -0.88574,1.86243 -0.23573,0.82288 -0.41026,1.665 -0.53071,2.51251 -0.17205,0.26548 -0.39503,0.7497 -0.47002,1.13935 -0.25115,1.14549 -0.0923,2.45414 0.67338,3.37891 0.40035,0.49692 1.11962,0.7765 1.72553,0.49816 0.83739,-0.37962 1.24802,-1.31342 1.39107,-2.17313 0.14692,-0.94416 0.0159,-1.95882 -0.48861,-2.78233 -0.005,-0.23688 -0.10209,-0.62481 -0.1483,-0.92115 -0.15304,-0.81589 -0.29778,-1.64989 -0.69856,-2.38826 -0.18444,-0.37767 -0.35561,-0.76372 -0.56804,-1.12649 z" />
    <path
       id="path926"
       style="fill:#b0b0b0;fill-opacity:1;stroke:none;stroke-width:2;stroke-miterlimit:4;stroke-dasharray:none"
       d="m 106.52089,274.21217 c -0.33779,0.59807 -0.61809,1.22989 -0.88574,1.86243 -0.23573,0.82288 -0.41026,1.665 -0.53071,2.51251 -0.17205,0.26548 -0.39503,0.7497 -0.47002,1.13935 -0.25115,1.14549 -0.0923,2.45414 0.67338,3.37891 0.40035,0.49692 1.11962,0.7765 1.72553,0.49816 0.83739,-0.37962 1.24802,-1.31342 1.39107,-2.17313 0.14692,-0.94416 0.0159,-1.95882 -0.48861,-2.78233 -0.005,-0.23688 -0.10209,-0.62481 -0.1483,-0.92115 -0.15304,-0.81589 -0.29778,-1.64989 -0.69856,-2.38826 -0.18444,-0.37767 -0.35561,-0.76372 -0.56804,-1.12649 z" />
    <path
       id="path1004"
       style="fill:#b0b0b0;fill-opacity:1;stroke:none;stroke-width:2;stroke-miterlimit:4;stroke-dasharray:none"
       d="m 106.52089,287.44142 c -0.33779,0.59807 -0.61809,1.22989 -0.88574,1.86243 -0.23573,0.82288 -0.41026,1.665 -0.53071,2.51251 -0.17205,0.26548 -0.39503,0.7497 -0.47002,1.13935 -0.25115,1.14549 -0.0923,2.45414 0.67338,3.37891 0.40035,0.49692 1.11962,0.7765 1.72553,0.49816 0.83739,-0.37962 1.24802,-1.31342 1.39107,-2.17313 0.14692,-0.94416 0.0159,-1.95882 -0.48861,-2.78233 -0.005,-0.23688 -0.10209,-0.62481 -0.1483,-0.92115 -0.15304,-0.81589 -0.29778,-1.64989 -0.69856,-2.38826 -0.18444,-0.37767 -0.35561,-0.76372 -0.56804,-1.12649 z" />
  </g>
</svg>
