<?xml version="1.0" encoding="UTF-8" standalone="no"?>
<svg
   xmlns:dc="http://purl.org/dc/elements/1.1/"
   xmlns:cc="http://creativecommons.org/ns#"
   xmlns:rdf="http://www.w3.org/1999/02/22-rdf-syntax-ns#"
   xmlns:svg="http://www.w3.org/2000/svg"
   xmlns="http://www.w3.org/2000/svg"
   xmlns:sodipodi="http://sodipodi.sourceforge.net/DTD/sodipodi-0.dtd"
   xmlns:inkscape="http://www.inkscape.org/namespaces/inkscape"
   width="210mm"
   height="297mm"
   viewBox="0 0 210 297"
   version="1.1"
   id="svg8"
   inkscape:version="1.0.2 (1.0.2+r75+1)"
   sodipodi:docname="model-base.svg">
  <defs
     id="defs2">
    <inkscape:path-effect
       effect="spiro"
       id="path-effect1068"
       is_visible="true"
       lpeversion="1" />
    <inkscape:path-effect
       effect="spiro"
       id="path-effect1064"
       is_visible="true"
       lpeversion="1" />
    <inkscape:path-effect
       effect="spiro"
       id="path-effect876"
       is_visible="true"
       lpeversion="1" />
    <inkscape:path-effect
       effect="spiro"
       id="path-effect872"
       is_visible="true"
       lpeversion="1" />
  </defs>
  <sodipodi:namedview
     id="base"
     pagecolor="#ffffff"
     bordercolor="#666666"
     borderopacity="1.0"
     inkscape:pageopacity="0.0"
     inkscape:pageshadow="2"
     inkscape:zoom="0.35"
     inkscape:cx="309.77849"
     inkscape:cy="410.50409"
     inkscape:document-units="mm"
     inkscape:current-layer="layer1"
     inkscape:document-rotation="0"
     showgrid="false"
     inkscape:window-width="1920"
     inkscape:window-height="1011"
     inkscape:window-x="0"
     inkscape:window-y="36"
     inkscape:window-maximized="1" />
  <metadata
     id="metadata5">
    <rdf:RDF>
      <cc:Work
         rdf:about="">
        <dc:format>image/svg+xml</dc:format>
        <dc:type
           rdf:resource="http://purl.org/dc/dcmitype/StillImage" />
        <dc:title></dc:title>
      </cc:Work>
    </rdf:RDF>
  </metadata>
  <g
     inkscape:label="Layer 1"
     inkscape:groupmode="layer"
     id="layer1">
    <rect
       style="fill:#ffffff;fill-opacity:1;stroke:#b0b0b0;stroke-width:2;stroke-miterlimit:4;stroke-dasharray:none;stroke-opacity:1"
       id="rect1194"
       width="209.657"
       height="297.35675"
       x="0.24813914"
       y="-0.16614896" />
    <path
       style="fill:#b0b0b0;fill-opacity:1;stroke:none;stroke-width:0.390315px;stroke-linecap:butt;stroke-linejoin:miter;stroke-opacity:1"
       d="m 109.63251,190.11531 h -7.30692 V 51.030517 H 46.328129 L 26.071218,24.076811 185.25965,23.80964 165.63025,51.029815 h -55.99774 z"
       id="path1070"
       sodipodi:nodetypes="ccccccccc" />
    <path
       style="fill:#b0b0b0;fill-opacity:1;stroke:none;stroke-width:0.264583px;stroke-linecap:butt;stroke-linejoin:miter;stroke-opacity:1"
       d="m 108.48118,257.59014 h -4.95315 V 163.3084 H 65.568996 l -13.540038,-40.10808 108.059632,-0.005 -13.64818,40.1126 h -37.95923 z"
       id="path866"
       sodipodi:nodetypes="ccccccccc" />
    <path
       style="fill:none;stroke:#000000;stroke-width:2;stroke-linecap:butt;stroke-linejoin:miter;stroke-miterlimit:4;stroke-dasharray:none;stroke-opacity:1"
       d="M 103.52803,257.59015 V 163.3084 H 65.568997 L 52.028958,123.20032"
       id="path10"
       sodipodi:nodetypes="cccc" />
    <path
       style="fill:none;stroke:#000000;stroke-width:2;stroke-linecap:butt;stroke-linejoin:miter;stroke-miterlimit:4;stroke-dasharray:none;stroke-opacity:1"
       d="M 108.48118,257.59015 V 163.3084 h 37.95923 l 13.64818,-40.11308"
       id="path41"
       sodipodi:nodetypes="cccc" />
    <path
       id="path868"
       style="fill:#b0b0b0;fill-opacity:1;stroke:none;stroke-width:2;stroke-miterlimit:4;stroke-dasharray:none"
       d="m 106.52089,259.92458 c -0.33779,0.59807 -0.61809,1.22989 -0.88574,1.86243 -0.23573,0.82288 -0.41026,1.665 -0.53071,2.51251 -0.17205,0.26548 -0.39503,0.7497 -0.47002,1.13935 -0.25115,1.14549 -0.0923,2.45414 0.67338,3.37891 0.40035,0.49692 1.11962,0.7765 1.72553,0.49816 0.83739,-0.37962 1.24802,-1.31342 1.39107,-2.17313 0.14692,-0.94416 0.0159,-1.95882 -0.48861,-2.78233 -0.005,-0.23688 -0.10209,-0.62481 -0.1483,-0.92115 -0.15304,-0.81589 -0.29778,-1.64989 -0.69856,-2.38826 -0.18444,-0.37767 -0.35561,-0.76372 -0.56804,-1.12649 z" />
    <path
       id="path926"
       style="fill:#b0b0b0;fill-opacity:1;stroke:none;stroke-width:2;stroke-miterlimit:4;stroke-dasharray:none"
       d="m 106.52089,274.21217 c -0.33779,0.59807 -0.61809,1.22989 -0.88574,1.86243 -0.23573,0.82288 -0.41026,1.665 -0.53071,2.51251 -0.17205,0.26548 -0.39503,0.7497 -0.47002,1.13935 -0.25115,1.14549 -0.0923,2.45414 0.67338,3.37891 0.40035,0.49692 1.11962,0.7765 1.72553,0.49816 0.83739,-0.37962 1.24802,-1.31342 1.39107,-2.17313 0.14692,-0.94416 0.0159,-1.95882 -0.48861,-2.78233 -0.005,-0.23688 -0.10209,-0.62481 -0.1483,-0.92115 -0.15304,-0.81589 -0.29778,-1.64989 -0.69856,-2.38826 -0.18444,-0.37767 -0.35561,-0.76372 -0.56804,-1.12649 z" />
    <path
       id="path1004"
       style="fill:#b0b0b0;fill-opacity:1;stroke:none;stroke-width:2;stroke-miterlimit:4;stroke-dasharray:none"
       d="m 106.52089,287.44142 c -0.33779,0.59807 -0.61809,1.22989 -0.88574,1.86243 -0.23573,0.82288 -0.41026,1.665 -0.53071,2.51251 -0.17205,0.26548 -0.39503,0.7497 -0.47002,1.13935 -0.25115,1.14549 -0.0923,2.45414 0.67338,3.37891 0.40035,0.49692 1.11962,0.7765 1.72553,0.49816 0.83739,-0.37962 1.24802,-1.31342 1.39107,-2.17313 0.14692,-0.94416 0.0159,-1.95882 -0.48861,-2.78233 -0.005,-0.23688 -0.10209,-0.62481 -0.1483,-0.92115 -0.15304,-0.81589 -0.29778,-1.64989 -0.69856,-2.38826 -0.18444,-0.37767 -0.35561,-0.76372 -0.56804,-1.12649 z" />
    <path
       style="fill:none;stroke:#000000;stroke-width:2;stroke-linecap:butt;stroke-linejoin:miter;stroke-miterlimit:4;stroke-dasharray:none;stroke-opacity:1"
       d="M 102.32559,123.55556 V 51.559684 H 46.32813 L 18.414666,14.233017"
       id="path1058"
       sodipodi:nodetypes="cccc" />
    <path
       style="fill:none;stroke:#000000;stroke-width:2;stroke-linecap:butt;stroke-linejoin:miter;stroke-miterlimit:4;stroke-dasharray:none;stroke-opacity:1"
       d="M 109.63251,123.59463 V 51.559684 h 55.99774 l 27.40876,-36.862262"
       id="path1060"
       sodipodi:nodetypes="cccc" />
    <path
       style="fill:none;stroke:#000000;stroke-width:2;stroke-linecap:butt;stroke-linejoin:miter;stroke-opacity:1;stroke-miterlimit:4;stroke-dasharray:none"
       d="m 108.48118,123.41397 51.60741,-0.21865"
       id="path1062"
       inkscape:path-effect="#path-effect1064"
       inkscape:original-d="m 108.48118,123.41397 c 17.20273,-0.0726 34.4052,-0.1455 51.60741,-0.21865" />
    <path
       style="fill:none;stroke:#000000;stroke-width:2;stroke-linecap:butt;stroke-linejoin:miter;stroke-opacity:1;stroke-miterlimit:4;stroke-dasharray:none"
       d="m 103.52803,123.25104 -51.499073,-0.0507"
       id="path1066"
       inkscape:path-effect="#path-effect1068"
       inkscape:original-d="m 103.52803,123.25104 c -17.166094,-0.0166 -34.332451,-0.0336 -51.499073,-0.0507" />
  </g>
</svg>
